<?xml version="1.0" encoding="UTF-8"?>
<!DOCTYPE svg  PUBLIC '-//W3C//DTD SVG 1.1//EN'  'http://www.w3.org/Graphics/SVG/1.1/DTD/svg11.dtd'>
<svg version="1.1" xmlns="http://www.w3.org/2000/svg">
<defs>
<font id="SFUIText-Bold" horiz-adv-x="1415">
<font-face font-family="SF UI  Text 2" font-weight="700" ascent="1638" bbox="-124 -494 2314 2057" cap-height="1443" descent="-410" panose-1="0 0 8 0 0 0 0 0 0 0" underline-position="-75" underline-thickness="50" unicode-range="U+0020-00FE" units-per-em="2048" x-height="1103"/>
<missing-glyph/>
<glyph glyph-name="space" horiz-adv-x="528" unicode=" "/>
<glyph d="M205 1443h320l-27 -968h-267zM183 140q0 108 86 151q42 20 96 20q118 0 162 -84q20 -38 20 -87q0 -107 -85 -150q-42 -20 -97 -20q-116 0 -161 81q-21 39 -21 89z" glyph-name="exclam" horiz-adv-x="730" unicode="!"/>
<glyph d="M402 831h-250v612h250v-612zM864 831h-250v612h250v-612z" glyph-name="quotedbl" horiz-adv-x="1016" unicode='"'/>
<glyph d="M1253 857h-211l-53 -252h209l-41 -223h-210l-77 -382h-222l77 382h-234l-77 -382h-221l77 382h-206l42 223h207l52 252h-205l42 221h206l74 366h221l-74 -366h234l74 366h222l-74 -366h209zM575 876l-59 -291h261l61 291h-263z" glyph-name="numbersign" horiz-adv-x="1360" unicode="#"/>
<glyph d="M784 -135h-140v125q-275 16 -408 163q-94 106 -95 257h286q7 -96 97 -149q52 -30 120 -37v372l-105 25q-292 68 -354 286q-15 55 -15 117q0 216 168 331q121 82 306 97v136h140v-136q233 -22 360 -159q99 -109 102 -261h-279q-3 87 -79 141q-46 31 -104 40v-356l107 -22 q381 -85 383 -404q0 -238 -193 -354q-119 -70 -297 -85v-127zM990 397q0 122 -164 165q-20 5 -42 9v-348q143 9 189 99q17 34 17 75zM460 1052q0 -118 154 -159q15 -4 30 -7v328q-104 -6 -155 -74q-29 -40 -29 -88z" glyph-name="dollar" unicode="$"/>
<glyph d="M1298 159q70 0 100 79q15 42 15 96q0 131 -71 165q-21 9 -44 9q-74 0 -102 -84q-13 -39 -13 -90q0 -120 63 -160q24 -15 52 -15zM1298 -33q-161 0 -255 114q-82 100 -82 252q0 179 109 281q92 85 228 85q163 0 257 -115q81 -99 81 -251q0 -179 -109 -281 q-92 -85 -229 -85zM403 744q-161 0 -255 113q-83 101 -83 254q0 178 109 280q92 85 229 85q164 0 257 -115q81 -99 81 -250q0 -181 -110 -283q-91 -84 -228 -84zM506 0h-282l545 756l434 687h281l-554 -762zM403 936q70 0 100 79q15 42 15 96q0 130 -70 165q-21 10 -45 10 q-73 0 -102 -83q-13 -40 -13 -92q0 -120 63 -160q24 -15 52 -15z" glyph-name="percent" horiz-adv-x="1701" unicode="%"/>
<glyph d="M1172 0l-111 117q-132 -113 -344 -139q-53 -6 -105 -6q-250 0 -388 128q-117 109 -117 277q0 182 148 304q51 43 121 81q4 1 42 23q19 10 22 12q-137 140 -167 244q-12 42 -12 87q0 144 114 239q118 98 297 98q189 0 303 -104q100 -91 100 -227q0 -184 -201 -322 q-42 -29 -93 -56l277 -287q51 91 51 263v71h245v-90q0 -246 -108 -409q-8 -12 -15 -22l268 -282h-327zM535 618q-154 -85 -155 -216q0 -109 94 -168q69 -43 168 -43q131 0 226 64q23 16 40 34l-331 349q-16 -6 -42 -20zM646 897q147 73 177 158q9 27 9 57q0 88 -69 130 q-40 23 -90 23q-90 0 -135 -65q-26 -39 -26 -88q0 -68 65 -144q28 -32 69 -71z" glyph-name="ampersand" horiz-adv-x="1525" unicode="&amp;"/>
<glyph d="M402 831h-250v612h250v-612z" glyph-name="quotesingle" horiz-adv-x="553" unicode="'"/>
<glyph d="M705 -277h-275q-185 233 -246 585q-25 144 -25 292q0 344 125 599q60 122 155 244h269q-123 -142 -193 -416q-55 -214 -55 -426q0 -359 146 -686q43 -94 99 -192z" glyph-name="parenleft" horiz-adv-x="803" unicode="("/>
<glyph d="M97 -277q195 341 234 675q11 99 11 203q0 295 -96 563q-64 178 -151 279h269q193 -247 250 -523q30 -145 30 -320q0 -379 -149 -681q-53 -109 -122 -196h-276z" glyph-name="parenright" horiz-adv-x="803" unicode=")"/>
<glyph d="M631 1065l255 -100l-94 -167l-216 162l32 -266h-188l32 266l-216 -162l-94 167l255 100l-255 106l94 169l217 -174l-33 277h188l-33 -277l217 174l94 -169z" glyph-name="asterisk" horiz-adv-x="1027" unicode="*"/>
<glyph d="M835 455v-409h-255v409h-412v258h412v408h255v-408h413v-258h-413z" glyph-name="plus" unicode="+"/>
<glyph d="M372 -388h-234l79 635h288z" glyph-name="comma" horiz-adv-x="722" unicode=","/>
<glyph d="M825 446h-657v273h657v-273z" glyph-name="hyphen" horiz-adv-x="992" unicode="-"/>
<glyph d="M356 -27q-100 0 -149 74q-28 43 -28 100q0 96 72 144q45 29 105 29q103 0 151 -76q26 -42 26 -97q0 -97 -73 -145q-44 -29 -104 -29z" glyph-name="period" horiz-adv-x="712" unicode="."/>
<glyph d="M310 -288h-268l414 1731h274z" glyph-name="slash" horiz-adv-x="772" unicode="/"/>
<glyph d="M701 -37q-272 0 -425 207q-148 202 -148 554q0 388 179 589q151 167 394 167q269 0 421 -201q152 -202 152 -556q0 -386 -177 -589q-150 -171 -396 -171zM701 209q152 0 220 187q47 128 47 328q0 348 -136 462q-56 47 -131 47q-148 0 -217 -176q-50 -129 -50 -333 q0 -343 130 -462q59 -53 137 -53z" glyph-name="zero" horiz-adv-x="1402" unicode="0"/>
<glyph d="M495 0v1149h-18l-354 -244v281l373 257h301v-1443h-302z" glyph-name="one" horiz-adv-x="1051" unicode="1"/>
<glyph d="M129 1011q0 204 140 333q142 133 375 136h11q229 0 372 -121q136 -121 139 -300q0 -133 -97 -268q-76 -106 -238 -259l-276 -263v-18h632v-251h-1041v211l471 461q176 172 222 252q32 57 32 115q0 101 -83 157q-60 41 -143 41q-124 0 -190 -84q-46 -59 -46 -141v-6h-280 v5z" glyph-name="two" horiz-adv-x="1318" unicode="2"/>
<glyph d="M498 626v225h176q127 0 190 79q40 51 40 119q0 108 -93 159q-58 31 -138 31q-138 0 -202 -90q-35 -49 -39 -114h-279q8 216 164 337q142 108 364 108q225 0 369 -112q134 -105 140 -265v-12q0 -153 -104 -249q-68 -61 -162 -81v-18q177 -20 263 -143q59 -86 59 -201 q0 -175 -138 -295q-144 -125 -377 -139q-26 -2 -52 -2q-254 0 -406 135q-137 122 -147 315h289q8 -114 113 -166q66 -33 154 -33q136 0 208 80q48 54 48 128q0 119 -106 172q-64 32 -155 32h-179z" glyph-name="three" horiz-adv-x="1370" unicode="3"/>
<glyph d="M820 0v252h-706v267q170 320 571 924h423v-940h189v-251h-189v-252h-288zM385 510v-16h442v714h-16q-232 -346 -426 -698z" glyph-name="four" horiz-adv-x="1410" unicode="4"/>
<glyph d="M691 -37q-235 0 -385 129q-140 120 -151 305q-1 7 -1 13h279q15 -107 111 -162q65 -38 149 -38q135 0 208 93q54 69 54 168q0 136 -94 210q-69 55 -167 55q-157 0 -238 -117q-5 -7 -9 -13h-270l72 837h907v-251h-673l-32 -371h18q99 140 306 141q199 0 329 -129 q130 -128 139 -331v-24q0 -223 -144 -364q-145 -144 -386 -151h-22z" glyph-name="five" horiz-adv-x="1359" unicode="5"/>
<glyph d="M722 -37q-255 0 -409 170q-38 42 -67 91q-121 187 -121 487q0 380 178 586q159 183 424 183q219 0 368 -124q131 -111 160 -279h-299q-28 94 -122 134q-51 21 -109 21q-156 0 -241 -147q-75 -131 -71 -343h18q71 147 232 194q64 19 136 19q195 0 328 -124 q130 -122 145 -312q2 -22 2 -43q0 -211 -138 -353q-138 -141 -359 -158q-28 -2 -55 -2zM719 211q119 0 196 83q66 73 66 173q0 122 -88 195q-72 60 -173 60q-125 0 -201 -86q-61 -70 -61 -166q0 -119 86 -194q73 -65 175 -65z" glyph-name="six" horiz-adv-x="1401" unicode="6"/>
<glyph d="M207 0l617 1176v19h-715v249h1017v-252l-603 -1192h-316z" glyph-name="seven" horiz-adv-x="1239" unicode="7"/>
<glyph d="M710 -37q-269 0 -430 124q-150 119 -152 298q0 160 116 267q83 75 202 102v18q-140 32 -211 144q-49 77 -49 170q0 164 134 273q143 116 374 121h17q233 0 381 -114q137 -105 143 -267v-13q0 -143 -104 -235q-65 -57 -156 -79v-18q163 -31 251 -152q68 -95 68 -214 q0 -181 -148 -297q-160 -125 -425 -128h-11zM710 191q141 0 216 83q53 58 53 139q0 112 -93 175q-73 48 -176 48q-141 0 -216 -84q-52 -58 -52 -139q0 -111 93 -173q72 -49 175 -49zM710 859q121 0 185 77q42 52 42 121q0 103 -84 159q-60 40 -143 40q-122 0 -185 -79 q-41 -51 -41 -120q0 -101 82 -157q61 -41 144 -41z" glyph-name="eight" horiz-adv-x="1421" unicode="8"/>
<glyph d="M674 -37q-218 0 -367 124q-132 110 -161 279h299q28 -94 122 -134q51 -21 109 -21q157 0 241 147q75 132 71 344h-9h-7h-2q-71 -147 -232 -194q-64 -19 -136 -19q-196 0 -328 124q-131 122 -145 312q-2 21 -2 42q0 211 138 353q138 141 359 158q28 2 55 2q257 0 411 -172 q37 -40 65 -88q121 -188 121 -487q0 -381 -178 -587q-160 -183 -424 -183zM681 722q125 0 201 86q61 69 61 166q0 117 -84 193q-75 66 -177 66q-119 0 -196 -84q-66 -72 -66 -172q0 -122 88 -195q72 -60 173 -60z" glyph-name="nine" horiz-adv-x="1401" unicode="9"/>
<glyph d="M356 -27q-100 0 -149 74q-28 43 -28 100q0 96 72 144q45 29 105 29q103 0 151 -76q26 -42 26 -97q0 -97 -73 -145q-44 -29 -104 -29zM356 711q-100 0 -149 74q-28 43 -28 100q0 96 72 144q45 29 105 29q103 0 151 -76q26 -42 26 -97q0 -97 -73 -145q-44 -29 -104 -29z " glyph-name="colon" horiz-adv-x="712" unicode=":"/>
<glyph d="M372 -388h-234l79 635h288zM356 711q-100 0 -149 74q-28 43 -28 100q0 96 72 144q45 29 105 29q103 0 151 -76q26 -42 26 -97q0 -97 -73 -145q-44 -29 -104 -29z" glyph-name="semicolon" horiz-adv-x="712" unicode=";"/>
<glyph d="M1184 279v-301l-953 496v235l953 496v-301l-657 -303v-19z" glyph-name="less" unicode="&lt;"/>
<glyph d="M1244 216h-1073v259h1073v-259zM1244 695h-1073v259h1073v-259z" glyph-name="equal" unicode="="/>
<glyph d="M231 279l657 303v19l-657 303v301l953 -496v-235l-953 -496v301z" glyph-name="greater" unicode="&gt;"/>
<glyph d="M78 1035q4 204 147 318q129 103 339 103q226 0 359 -120q116 -107 116 -270q0 -189 -167 -308q-22 -15 -47 -30q-115 -66 -147 -122q-23 -40 -23 -100v-53h-265l-2 55q-12 153 68 243q41 46 112 88q113 68 145 122q23 39 23 96q0 86 -75 131q-49 28 -115 28 q-114 0 -167 -82q-27 -43 -30 -99h-271zM533 -30q-116 0 -161 81q-21 39 -21 89q0 108 86 151q42 20 96 20q116 0 161 -83q20 -38 20 -88q0 -107 -85 -149q-41 -21 -96 -21z" glyph-name="question" horiz-adv-x="1141" unicode="?"/>
<glyph d="M940 837q-107 0 -149 -105q-20 -53 -20 -123q0 -151 85 -205q36 -23 83 -23q103 0 148 96q26 55 26 132q0 144 -82 201q-40 27 -91 27zM972 1450q322 0 539 -168q202 -158 253 -417q15 -77 15 -158q0 -269 -132 -409q-103 -108 -261 -108q-135 0 -202 81q-26 34 -36 75 h-18q-65 -152 -240 -153q-164 0 -259 126q-87 116 -87 296q0 198 108 312q92 96 228 96q130 0 202 -89q19 -24 32 -52h18v119h202v-530q0 -91 67 -109q14 -3 29 -3q87 0 132 115q34 87 34 216q0 262 -162 425q-162 161 -432 172q-18 1 -36 1q-263 0 -441 -158 q-172 -153 -207 -403q-8 -57 -8 -116q0 -297 179.5 -475t486.5 -187h28q175 0 269 32q2 1 3 1v-163q-123 -36 -287 -36q-352 0 -582 188q-218 179 -267 480q-13 80 -13 165q0 321 181 542q170 210 454 271q101 21 210 21z" glyph-name="at" horiz-adv-x="1899" unicode="@"/>
<glyph d="M1102 0l-109 344h-507l-111 -344h-303l501 1443h355l501 -1443h-327zM732 1143l-181 -566h378l-179 566h-18z" glyph-name="A" horiz-adv-x="1500" unicode="A"/>
<glyph d="M823 0h-648v1443h631q249 0 367 -133q80 -91 80 -227q0 -126 -88 -218q-73 -75 -173 -90v-18q151 -11 246 -117q84 -96 84 -227q0 -202 -149 -314q-134 -99 -350 -99zM477 1212v-367h227q187 0 237 108q15 34 15 75q0 118 -106 163q-52 21 -121 21h-252zM477 231h269 q212 0 257 135q11 34 11 73q0 153 -164 191q-50 11 -111 11h-262v-410z" glyph-name="B" horiz-adv-x="1420" unicode="B"/>
<glyph d="M788 -37q-306 0 -487 195q-186 199 -190 549v15q0 354 183 557q178 198 484 201h10q241 0 413 -137q163 -128 203 -331q7 -36 10 -73h-294q-25 145 -141 221q-84 54 -191 54q-183 0 -283 -151q-85 -131 -85 -341q0 -263 128 -395q96 -98 241 -98q160 0 255 103 q60 66 77 158h294q-18 -222 -176 -366q-162 -148 -410 -160q-21 -1 -41 -1z" glyph-name="C" horiz-adv-x="1518" unicode="C"/>
<glyph d="M175 1444h568q349 0 527 -217q150 -185 150 -495q0 -401 -227 -590q-172 -142 -450 -142h-568v1444zM477 1186v-928h218q263 0 363 200q54 110 54 269q0 264 -158 382q-103 77 -259 77h-218z" glyph-name="D" horiz-adv-x="1530" unicode="D"/>
<glyph d="M1131 258v-258h-956v1443h956v-258h-654v-337h617v-239h-617v-351h654z" glyph-name="E" horiz-adv-x="1274" unicode="E"/>
<glyph d="M477 0h-302v1443h945v-258h-643v-376h587v-247h-587v-562z" glyph-name="F" horiz-adv-x="1224" unicode="F"/>
<glyph d="M1443 589q0 -291 -174 -460q-173 -166 -466 -166q-318 0 -502 198q-189 205 -190 562q0 342 179 546q172 196 465 210q21 1 41 1q264 0 439 -144q164 -136 195 -353h-300q-47 151 -188 206q-66 25 -146 25q-191 0 -292 -154q-84 -129 -84 -334q0 -263 134 -397 q101 -100 254 -100q169 0 265 102q72 77 76 189l1 26h-313v227h606v-184z" glyph-name="G" horiz-adv-x="1557" unicode="G"/>
<glyph d="M1429 0h-302v603h-650v-603h-302v1443h302v-582h650v582h302v-1443z" glyph-name="H" horiz-adv-x="1604" unicode="H"/>
<glyph d="M477 0h-302v1443h302v-1443z" glyph-name="I" horiz-adv-x="652" unicode="I"/>
<glyph d="M76 424h292q2 -112 84 -163q48 -28 110 -28q152 0 184 141q8 35 8 76v993h302v-995q0 -272 -176 -397q-123 -88 -314 -88q-235 0 -369 137q-121 125 -121 324z" glyph-name="J" horiz-adv-x="1231" unicode="J"/>
<glyph d="M477 0h-302v1443h302v-643h18l533 643h336l-526 -633l563 -810h-362l-419 604l-143 -169v-435z" glyph-name="K" horiz-adv-x="1453" unicode="K"/>
<glyph d="M1119 263v-263h-944v1443h302v-1180h642z" glyph-name="L" horiz-adv-x="1218" unicode="L"/>
<glyph d="M455 0h-280v1443h356l399 -970h18l400 970h355v-1443h-280v965h-16l-367 -882h-201l-368 882h-16v-965z" glyph-name="M" horiz-adv-x="1878" unicode="M"/>
<glyph d="M464 0h-289v1443h252l664 -899h18v899h289v-1443h-250l-666 903h-18v-903z" glyph-name="N" horiz-adv-x="1573" unicode="N"/>
<glyph d="M806 1480q308 0 494 -191q187 -192 198 -528q1 -20 1 -39q0 -348 -183 -551q-178 -198 -481 -208h-29q-311 0 -497 192q-188 195 -198 534v33q0 343 182 547q174 196 469 210q22 1 44 1zM806 1215q-183 0 -288 -143q-98 -134 -98 -350q0 -251 126 -386q103 -108 260 -108 q184 0 289 145q96 133 96 349q0 252 -127 386q-102 107 -258 107z" glyph-name="O" horiz-adv-x="1610" unicode="O"/>
<glyph d="M175 1443h602q222 0 360 -136q139 -139 140 -363q0 -218 -139 -355q-138 -136 -360 -141h-16h-285v-448h-302v1443zM477 1195v-502h219q187 0 248 126q26 53 26 124q0 178 -146 232q-55 20 -127 20h-220z" glyph-name="P" horiz-adv-x="1380" unicode="P"/>
<glyph d="M1451 -141h-292l-100 142q-116 -38 -253 -38q-312 0 -498 192q-189 196 -197 540v27q0 343 182 547q174 196 469 210q22 1 44 1q306 0 491 -188q189 -192 201 -526q1 -22 1 -44q0 -329 -162 -524q-30 -37 -65 -67zM807 228q49 0 104 13l-164 240h274l67 -81 q103 112 103 322q0 249 -126 384q-103 109 -259 109q-183 0 -288 -143q-98 -134 -98 -350q0 -254 129 -389q102 -105 258 -105z" glyph-name="Q" horiz-adv-x="1610" unicode="Q"/>
<glyph d="M477 1199v-444h265q157 0 215 106q26 49 26 115q0 129 -99 187q-61 36 -145 36h-262zM477 523v-523h-302v1443h606q262 0 400 -148q112 -122 112 -315q0 -182 -111 -305q-63 -70 -151 -105l304 -570h-342l-269 523h-247z" glyph-name="R" horiz-adv-x="1422" unicode="R"/>
<glyph d="M110 401h292q12 -104 122 -156q77 -36 180 -36q145 0 220 74q48 48 48 111q0 89 -102 137q-56 26 -147 46l-188 40q-391 83 -392 412q0 202 149 326q152 125 403 125q242 0 396 -124q145 -118 156 -301v-10h-284q-13 102 -110 154q-68 36 -156 36q-148 0 -215 -78 q-36 -44 -36 -102q0 -87 100 -134q53 -24 138 -42l174 -37q279 -59 367 -209q48 -83 48 -201q0 -228 -170 -354q-156 -115 -415 -115q-282 0 -440 139q-130 117 -138 299z" glyph-name="S" horiz-adv-x="1383" unicode="S"/>
<glyph d="M827 0h-302v1185h-433v258h1168v-258h-433v-1185z" glyph-name="T" horiz-adv-x="1352" unicode="T"/>
<glyph d="M480 1443v-914q0 -172 118 -249q75 -49 184 -49q182 0 259 125q44 72 44 173v914h302v-945q0 -235 -156 -380q-163 -152 -439 -155h-10q-277 0 -442 149q-158 143 -162 375v11v945h302z" glyph-name="U" horiz-adv-x="1564" unicode="U"/>
<glyph d="M925 0h-365l-488 1443h341l328 -1103h18l322 1103h325z" glyph-name="V" horiz-adv-x="1477" unicode="V"/>
<glyph d="M1025 955l-270 -955h-285l-382 1443h314l225 -1017h16l263 1017h255l268 -1017h16l223 1017h312l-383 -1443h-283l-273 955h-16z" glyph-name="W" horiz-adv-x="2067" unicode="W"/>
<glyph d="M88 0l461 727l-458 716h355l301 -505h18l304 505h338l-475 -721l468 -722h-344l-310 489h-18l-314 -489h-326z" glyph-name="X" horiz-adv-x="1494" unicode="X"/>
<glyph d="M877 0h-302v531l-503 912h327l318 -604h18l317 604h327l-502 -912v-531z" glyph-name="Y" horiz-adv-x="1451" unicode="Y"/>
<glyph d="M135 0v204l726 963v18h-709v258h1077v-203l-724 -964v-18h744v-258h-1114z" glyph-name="Z" horiz-adv-x="1384" unicode="Z"/>
<glyph d="M159 1444h575v-223h-294v-1239h306v-222h-587v1684z" glyph-name="bracketleft" horiz-adv-x="848" unicode="["/>
<glyph d="M462 -288l-420 1731h274l414 -1731h-268z" glyph-name="backslash" horiz-adv-x="772" unicode="\"/>
<glyph d="M689 1444v-1684h-587v222h307v1239h-294v223h574z" glyph-name="bracketright" horiz-adv-x="848" unicode="]"/>
<glyph d="M524 1207l-182 -405h-257l319 631h259l319 -631h-257l-183 405h-18z" glyph-name="asciicircum" horiz-adv-x="1066" unicode="^"/>
<glyph d="M947 -334h-949v227h949v-227z" glyph-name="underscore" horiz-adv-x="945" unicode="_"/>
<glyph d="M826 1281h-269l-287 353h309z" glyph-name="grave" horiz-adv-x="1098" unicode="`"/>
<glyph d="M544 202q116 0 186 73q51 54 51 125v81l-223 -14q-185 -15 -186 -133q0 -79 78 -114q41 -18 94 -18zM448 -17q-175 0 -276 106q-85 90 -85 226q0 204 202 286q94 38 225 46l267 16v90q0 107 -110 135q-34 9 -76 9q-154 0 -195 -93q-3 -5 -4 -9h-268q15 165 165 255 q127 77 318 77q276 0 390 -153q67 -90 67 -221v-753h-282v144h-18q-62 -110 -203 -147q-56 -14 -117 -14z" glyph-name="a" horiz-adv-x="1208" unicode="a"/>
<glyph d="M796 -17q-179 0 -284 110q-34 36 -56 80h-18v-173h-282v1524h291v-597h18q57 123 191 171q66 23 140 23q226 0 345 -174q102 -150 102 -395q0 -297 -147 -449q-117 -120 -300 -120zM695 877q-135 0 -203 -118q-47 -84 -48 -208q1 -189 103 -274q62 -51 148 -51 q140 0 206 123q43 83 43 203q0 191 -103 276q-61 49 -146 49z" glyph-name="b" horiz-adv-x="1334" unicode="b"/>
<glyph d="M1122 714h-272q-23 121 -128 159q-42 15 -91 15q-167 0 -221 -165q-24 -72 -24 -169q0 -242 133 -313q49 -26 112 -26q155 0 205 121q9 22 14 46h272q-20 -209 -176 -318q-127 -88 -315 -88q-304 0 -442 205q-97 145 -97 373q0 329 198 475q134 98 341 98q258 0 391 -158 q85 -103 100 -255z" glyph-name="c" horiz-adv-x="1203" unicode="c"/>
<glyph d="M541 -17q-217 0 -338 166q-111 152 -111 404q0 289 144 442q118 126 305 126q165 0 267 -105q39 -39 62 -89h17v597h291v-1524h-282v173h-18q-62 -125 -203 -170q-64 -20 -134 -20zM640 877q-141 0 -206 -123q-43 -82 -43 -202q0 -201 110 -283q58 -43 139 -43 q142 0 208 125q42 81 42 200q0 191 -103 276q-61 50 -147 50z" glyph-name="d" horiz-adv-x="1334" unicode="d"/>
<glyph d="M623 904q-124 0 -191 -93q-43 -60 -49 -144h470q-6 141 -103 203q-54 34 -127 34zM859 314h271q-37 -175 -198 -266q-129 -72 -306 -72q-277 0 -419 181q-115 148 -115 389q0 286 159 443q141 138 371 138q270 0 406 -178q111 -145 111 -379v-89h-757v-15 q4 -156 107 -226q61 -40 145 -40q161 0 217 97q4 9 8 17z" glyph-name="e" horiz-adv-x="1231" unicode="e"/>
<glyph d="M229 0v863h-175v229h175v111q0 197 130 266q87 46 244 46q76 0 146 -11v-209q-44 8 -95 8q-133 0 -140 -109v-12v-90h231v-229h-225v-863h-291z" glyph-name="f" horiz-adv-x="836" unicode="f"/>
<glyph d="M888 561q0 184 -103 267q-62 49 -149 49q-143 0 -208 -124q-40 -79 -40 -191q0 -195 109 -274q58 -42 139 -42q143 0 209 122q43 79 43 193zM632 -418q-253 0 -393 116q-100 84 -112 207h288q16 -73 121 -100q46 -11 102 -11q168 0 224 101q23 42 23 95v204h-18 q-82 -156 -280 -176q-26 -2 -52 -2q-212 0 -333 157q-113 147 -113 388q0 280 141 431q120 129 311 129q160 0 265 -100q44 -42 70 -95h18v177h282v-1099q0 -200 -156 -314q-147 -108 -388 -108z" glyph-name="g" horiz-adv-x="1322" unicode="g"/>
<glyph d="M156 0v1524h286v-602h18q48 119 180 172q76 30 166 30q226 0 326 -158q64 -102 64 -256v-710h-291v641q0 188 -147 224q-32 8 -69 8q-130 0 -197 -91q-45 -62 -45 -149v-633h-291z" glyph-name="h" horiz-adv-x="1332" unicode="h"/>
<glyph d="M148 0v1103h291v-1103h-291zM294 1257q-104 0 -150 69q-22 35 -22 78q0 85 73 124q43 23 99 23q104 0 149 -68q23 -35 23 -79q0 -82 -71 -123q-44 -24 -101 -24z" glyph-name="i" horiz-adv-x="587" unicode="i"/>
<glyph d="M439 1103v-1136q0 -268 -247 -326q-64 -15 -143 -15q-41 0 -78 3v224q12 -2 37 -2q105 0 130 60q10 27 10 65v1127h291zM294 1257q-104 0 -150 69q-22 35 -22 78q0 85 73 124q43 23 99 23q104 0 149 -68q23 -35 23 -79q0 -82 -71 -123q-44 -24 -101 -24z" glyph-name="j" horiz-adv-x="587" unicode="j"/>
<glyph d="M465 672l369 431h331l-420 -473l449 -630h-345l-322 448l-80 -82v-366h-291v1524h291v-852h18z" glyph-name="k" horiz-adv-x="1232" unicode="k"/>
<glyph d="M156 0v1524h291v-1524h-291z" glyph-name="l" horiz-adv-x="603" unicode="l"/>
<glyph d="M146 0v1103h282v-180h18q44 123 163 175q66 29 142 29q185 0 271 -134q21 -32 34 -70h18q48 115 168 170q76 34 164 34q188 0 285 -127q72 -97 72 -243v-757h-291v680q-2 195 -184 196q-107 0 -161 -81q-33 -52 -33 -120v-675h-280v692q0 126 -95 168q-39 16 -87 16 q-100 0 -156 -79q-39 -57 -39 -133v-664h-291z" glyph-name="m" horiz-adv-x="1899" unicode="m"/>
<glyph d="M146 0v1103h282v-177h18q49 119 179 171q75 30 164 30q233 0 329 -169q56 -99 56 -245v-713h-291v644q0 204 -165 229q-22 3 -45 3q-132 0 -195 -94q-41 -61 -41 -146v-636h-291z" glyph-name="n" horiz-adv-x="1310" unicode="n"/>
<glyph d="M635 214q149 0 210 142q34 80 34 196q0 215 -113 297q-55 40 -131 40q-147 0 -208 -139q-36 -81 -36 -198q0 -229 123 -306q52 -32 121 -32zM635 -24q-275 0 -419 176q-124 152 -124 400q0 284 163 439q144 136 380 136q266 0 411 -169q132 -153 132 -406 q0 -297 -172 -450q-142 -126 -371 -126z" glyph-name="o" horiz-adv-x="1269" unicode="o"/>
<glyph d="M783 1121q225 0 345 -171q105 -151 105 -398q0 -302 -150 -453q-116 -116 -295 -116q-182 0 -283 110q-31 35 -50 76h-18v-514h-291v1448h282v-181h18q62 128 199 176q65 23 138 23zM684 226q146 0 211 130q39 80 39 196q0 195 -106 278q-60 47 -143 47q-139 0 -206 -121 q-45 -83 -45 -205q0 -192 104 -276q61 -49 146 -49z" glyph-name="p" horiz-adv-x="1324" unicode="p"/>
<glyph d="M543 1121q156 0 261 -99q46 -44 73 -100h18v181h283v-1448h-292v514h-18q-73 -146 -243 -178q-42 -8 -88 -8q-220 0 -339 170q-106 151 -106 400q0 288 144 441q119 127 307 127zM638 226q141 0 208 122q44 82 44 203q0 188 -101 274q-63 52 -150 52q-142 0 -207 -126 q-41 -81 -41 -199q0 -203 110 -284q58 -42 137 -42z" glyph-name="q" horiz-adv-x="1324" unicode="q"/>
<glyph d="M146 0v1103h282v-176h18q25 96 120 152q73 42 160 42q73 0 112 -14v-265q-37 15 -122 18h-14q-142 0 -215 -92q-50 -65 -50 -157v-611h-291z" glyph-name="r" horiz-adv-x="884" unicode="r"/>
<glyph d="M121 779q0 161 132 257q127 91 327 91q293 0 404 -159q49 -72 57 -169h-269q-18 83 -118 107q-33 8 -72 8q-108 0 -157 -55q-24 -28 -24 -62q0 -63 94 -95q25 -8 55 -15l207 -45q220 -48 281 -168q29 -57 29 -134q0 -166 -138 -267q-134 -97 -348 -97q-296 0 -418 153 q-59 75 -69 178h284q32 -109 185 -117q12 -1 24 -1q119 0 169 58q22 27 22 60q0 66 -94 96q-20 7 -45 12l-200 45q-271 59 -311 245q-7 35 -7 74z" glyph-name="s" horiz-adv-x="1160" unicode="s"/>
<glyph d="M229 1360h291v-268h234v-229h-234v-496q0 -116 94 -136q23 -4 49 -4q48 0 85 4v-222q-67 -13 -145 -13q-235 0 -317 100q-57 70 -57 202v565h-175v229h175v268z" glyph-name="t" horiz-adv-x="845" unicode="t"/>
<glyph d="M1169 1103v-1103h-282v177h-18q-55 -135 -200 -181q-63 -20 -135 -20q-207 0 -314 136q-84 108 -84 277v714h291v-644q0 -187 146 -222q32 -8 69 -8q134 0 197 95q39 59 39 143v636h291z" glyph-name="u" horiz-adv-x="1315" unicode="u"/>
<glyph d="M51 1103h313l228 -822h18l226 822h307l-381 -1103h-328z" glyph-name="v" horiz-adv-x="1194" unicode="v"/>
<glyph d="M1674 1103l-293 -1103h-310l-197 761h-18l-195 -761h-306l-294 1103h295l164 -791h18l193 791h278l194 -791h18l164 791h289z" glyph-name="w" horiz-adv-x="1735" unicode="w"/>
<glyph d="M598 360h-18l-205 -360h-309l346 545l-348 558h334l195 -362h18l195 362h318l-346 -545l349 -558h-324z" glyph-name="x" horiz-adv-x="1190" unicode="x"/>
<glyph d="M283 -403q-91 0 -111 3v235q15 -3 66 -3q146 0 187 98q5 11 8 23l10 40l-387 1110h321l232 -836h18l232 836h308l-380 -1120q-73 -220 -193 -306q-112 -80 -311 -80z" glyph-name="y" horiz-adv-x="1223" unicode="y"/>
<glyph d="M121 0v172l558 681v18h-550v232h898v-192l-526 -661v-18h539v-232h-919z" glyph-name="z" horiz-adv-x="1160" unicode="z"/>
<glyph d="M371 601q164 -16 199 -171q9 -39 9 -85v-260q0 -126 55 -168q48 -36 159 -36h45v-219h-105q-267 0 -364 127q-69 91 -69 258v218q0 135 -52 177q-39 30 -116 30v277q105 0 140 58q28 47 28 150v185q0 225 133 311q103 65 300 65h105v-220h-45q-132 0 -176 -52 q-38 -46 -38 -153v-237q0 -200 -174 -232q-17 -3 -34 -5v-18z" glyph-name="braceleft" horiz-adv-x="927" unicode="{"/>
<glyph d="M508 -289h-267v1732h267v-1732z" glyph-name="bar" horiz-adv-x="749" unicode="|"/>
<glyph d="M556 601v18q-186 17 -206 191q-2 22 -2 46v237q0 126 -54 168q-47 37 -160 37h-45v220h105q267 0 364 -123q69 -88 69 -253v-185q0 -135 52 -178q38 -30 116 -30v-277q-105 0 -140 -58q-28 -47 -28 -149v-218q0 -233 -137 -320q-102 -65 -296 -65h-105v219h45 q131 0 176 52q38 46 38 152v260q0 194 145 243q29 10 63 13z" glyph-name="braceright" horiz-adv-x="927" unicode="}"/>
<glyph d="M566 622q-70 69 -113 79q-12 2 -24 2q-114 0 -119 -176v-2h-228q-2 26 -2 38q0 217 120 322q82 72 203 72q100 0 193 -73q31 -24 66 -58q73 -72 121 -78q7 -1 14 -1q112 2 119 178h227q2 -26 2 -38q0 -216 -118 -321q-82 -73 -203 -73q-103 0 -198 75q-29 23 -60 54z" glyph-name="asciitilde" horiz-adv-x="1225" unicode="~"/>
<glyph glyph-name="nonbreakingspace" horiz-adv-x="528" unicode=" "/>
<glyph d="M205 -322l26 969h267l27 -969h-320zM183 982q0 106 85 149q42 21 97 21q117 0 162 -83q20 -38 20 -87q0 -109 -87 -151q-41 -20 -95 -20q-116 0 -161 82q-21 39 -21 89z" glyph-name="exclamdown" horiz-adv-x="730" unicode="¡"/>
<glyph d="M1253 528q-19 -191 -173 -302q-102 -72 -240 -94v-184h-242v188q-215 42 -334 207q-106 148 -106 357q0 254 154 411q114 116 286 149v189h242v-185q198 -34 312 -167q87 -102 101 -237h-272q-28 103 -127 149q-55 25 -121 25q-131 0 -209 -100q-72 -91 -72 -234 q0 -179 105 -273q74 -65 175 -65q152 0 219 97q21 31 30 69h272z" glyph-name="cent" unicode="¢"/>
<glyph d="M1264 257v-257h-1124v240q152 21 237 131q64 85 66 193q0 30 -11 68h-288v213h224q-59 144 -59 243q0 211 186 313q143 79 372 79q195 0 330 -33v-243q-138 33 -287 33q-182 0 -258 -91q-40 -48 -40 -113q0 -84 42 -188h417v-213h-354q10 -34 10 -65q6 -127 -77 -222 q-38 -43 -88 -69v-19h702z" glyph-name="sterling" unicode="£"/>
<glyph d="M474 648q0 -100 76 -170q68 -62 158 -62q102 0 172 76q63 68 63 156q0 101 -77 171q-68 62 -158 62q-102 0 -172 -77q-62 -67 -62 -156zM1248 1021l-147 -149q58 -104 58 -224q-1 -122 -59 -224l148 -149l-166 -172l-149 150q-104 -61 -225 -61q-122 1 -225 61l-149 -150 l-166 172l148 149q-58 106 -58 224q0 121 58 224l-148 149l166 172l148 -150q104 62 226 62q122 -1 225 -61l149 149z" glyph-name="currency" unicode="¤"/>
<glyph d="M1130 206h-271v-206h-302v206h-271v169h271v133h-271v169h195l-427 766h327l318 -604h18l317 604h327l-426 -766h195v-169h-271v-133h271v-169z" glyph-name="yen" unicode="¥"/>
<glyph d="M508 773h-267v670h267v-670zM508 -289h-267v669h267v-669z" glyph-name="brokenbar" horiz-adv-x="749" unicode="¦"/>
<glyph d="M464 454l109 -38q78 12 118 71q21 32 21 67q0 79 -95 123q-22 9 -46 16l-109 38q-75 -12 -117 -70q-23 -33 -23 -68q0 -77 95 -122q22 -10 47 -17zM515 -286q-204 0 -327 108q-102 91 -109 226h253q9 -68 84 -103q46 -21 103 -21q104 0 151 60q23 30 23 67q0 65 -91 104 q-26 10 -58 20l-175 60q-216 70 -274 183q-27 52 -27 118q0 132 107 213q47 36 108 55v18q-154 71 -191 181q-14 43 -14 93q0 159 130 252q119 85 308 85q208 0 328 -113q92 -87 102 -216h-251q-10 69 -86 101q-43 18 -95 18q-105 0 -150 -61q-21 -29 -21 -65q0 -60 76 -97 q30 -14 71 -27l171 -60q216 -74 276 -182q28 -52 28 -117q0 -122 -95 -205q-58 -50 -136 -71v-19q164 -63 205 -167q18 -45 18 -100q0 -155 -127 -249q-122 -89 -315 -89z" glyph-name="section" horiz-adv-x="1032" unicode="§"/>
<glyph d="M354 1267q-85 0 -129 64q-26 39 -26 88q0 83 65 126q40 25 90 25q85 0 129 -63q26 -39 26 -88q0 -82 -64 -126q-40 -26 -91 -26zM822 1267q-84 0 -128 63q-27 39 -27 89q0 82 64 125q40 26 91 26q86 0 130 -64q26 -38 26 -87q0 -83 -65 -126q-40 -26 -91 -26z" glyph-name="dieresis" horiz-adv-x="1176" unicode="¨"/>
<glyph d="M871 -136q-267 0 -477 158q-192 145 -270 375q-41 123 -41 255q0 267 157 477q146 193 375 271q124 41 256 41q269 0 479 -159q193 -146 269 -376q41 -123 41 -254q0 -267 -158 -476q-145 -193 -374 -270q-125 -42 -257 -42zM871 30q226 0 397 139q160 130 210 331 q18 75 18 152q0 225 -139 395q-131 161 -334 210q-75 18 -152 18q-225 0 -396 -139q-161 -131 -210 -332q-18 -75 -18 -152q0 -223 138 -394q131 -160 333 -210q75 -18 153 -18zM1238 759h-188q-16 83 -92 113q-33 13 -70 13q-111 0 -157 -101q-25 -55 -25 -130 q0 -154 90 -209q40 -25 92 -25q111 0 150 82q8 18 12 38h188q-17 -158 -145 -234q-87 -50 -206 -50q-199 0 -302 133q-80 105 -80 265q0 204 128 311q100 84 253 84q172 0 271 -107q69 -75 81 -183z" glyph-name="copyright" horiz-adv-x="1742" unicode="©"/>
<glyph d="M491 693q94 0 143 64q30 40 30 91v70l-167 -12q-138 -15 -143 -107q0 -71 71 -96q30 -10 66 -10zM392 497q-160 0 -243 104q-58 74 -58 182q0 195 214 258q67 19 150 24l207 11v75q1 74 -77 98q-30 9 -67 9q-105 0 -134 -62q-5 -10 -7 -20h-252q11 157 152 234 q102 55 251 55q225 0 329 -122q68 -80 68 -197v-631h-256v113h-18q-50 -94 -173 -122q-42 -9 -86 -9z" glyph-name="ordfeminine" horiz-adv-x="1031" unicode="ª"/>
<glyph d="M942 572v-11l347 -410h-276l-344 411v8l349 411h271zM431 572v-11l347 -410h-276l-344 411v8l349 411h271z" glyph-name="guillemotleft" horiz-adv-x="1447" unicode="«"/>
<glyph d="M1230 713v-654h-255v396h-790v258h1045z" glyph-name="logicalnot" unicode="¬"/>
<glyph d="M630 412q-194 0 -342 125q-140 118 -177 298q-11 54 -11 108q0 195 126 344q119 140 299 177q52 10 105 10q195 0 343 -126q141 -119 177 -299q10 -53 10 -106q0 -195 -125 -344q-119 -140 -299 -177q-53 -10 -106 -10zM630 548q158 0 272 106q111 104 124 256q1 17 1 33 q0 157 -107 271q-104 111 -258 123q-17 1 -32 1q-158 0 -272 -106q-111 -104 -124 -256q-1 -17 -1 -33q0 -156 106 -269q104 -111 256 -124q18 -2 35 -2zM546 707h-125v487h256q105 0 153 -69q27 -38 27 -87q0 -94 -72 -135q-15 -8 -31 -13l127 -183h-149l-111 165h-75v-165 zM546 1090v-121h99q77 2 78 61q-2 59 -76 60h-101z" glyph-name="registered" horiz-adv-x="1260" unicode="®"/>
<glyph d="M892 1316h-735v180h735v-180z" glyph-name="macron" horiz-adv-x="1048" unicode="¯"/>
<glyph d="M443 759q-142 0 -241 99q-97 104 -100 244q0 141 96 241q103 101 245 103q143 0 242 -100q98 -103 100 -244q0 -140 -96 -240q-104 -100 -246 -103zM443 936q88 0 138 67q33 44 33 99q0 82 -64 131q-46 36 -107 36q-89 0 -138 -68q-31 -44 -31 -99q0 -81 63 -130 q46 -36 106 -36z" glyph-name="degree" horiz-adv-x="887" unicode="°"/>
<glyph d="M1205 71h-997v225h997v-225zM832 650v-234h-249v234h-375v224h375v234h249v-234h375v-224h-375z" glyph-name="plusminus" unicode="±"/>
<glyph d="M80 1530q0 157 119 246q101 74 254 74q193 0 291 -104q67 -74 67 -179q0 -117 -99 -222q-53 -56 -140 -121l-114 -97v-18h368v-213h-727v189l277 239q129 108 158 156q18 30 18 62q0 60 -55 86q-25 12 -56 12q-73 0 -103 -55q-13 -25 -13 -54v-6h-245v5z" glyph-name="two.sups" horiz-adv-x="914" unicode="²"/>
<glyph d="M354 1278v177h113q81 0 107 54q9 19 9 40q0 56 -58 80q-27 11 -60 11q-87 0 -117 -61q-9 -20 -11 -43h-243q1 157 124 242q100 69 252 69q189 0 289 -93q72 -68 72 -164q0 -102 -76 -162q-44 -34 -100 -43v-19q126 -11 181 -101q29 -49 29 -112q0 -133 -118 -212 q-109 -72 -277 -72q-200 0 -305 112q-79 84 -80 208h246q3 -69 71 -95q30 -11 66 -11q85 0 118 52q13 22 13 47q0 72 -79 91q-23 5 -51 5h-115z" glyph-name="three.sups" horiz-adv-x="950" unicode="³"/>
<glyph d="M260 1281l247 353h309l-287 -353h-269z" glyph-name="acute" horiz-adv-x="1098" unicode="´"/>
<glyph d="M966 -259h-280v702h-20q-208 0 -355 126q-138 118 -164 298q-5 36 -5 72q0 205 131 344q131 140 340 158q27 2 54 2h299v-1702zM1135 -259v1702h280v-1702h-280z" glyph-name="paragraph" horiz-adv-x="1580" unicode="¶"/>
<glyph d="M362 555q-110 0 -158 80q-25 43 -25 99q0 102 76 150q46 28 107 28q109 0 157 -80q25 -42 25 -98q0 -106 -79 -153q-44 -26 -103 -26z" glyph-name="periodcentered" horiz-adv-x="723" unicode="·"/>
<glyph d="M405 -241v115l55 132h174l-49 -119q152 -7 187 -115q9 -29 9 -62q0 -127 -118 -178q-62 -26 -149 -26q-84 0 -147 17v135q37 -14 116 -14q111 1 112 59q0 46 -83 54q-21 2 -47 2h-60z" glyph-name="cedilla" horiz-adv-x="1098" unicode="¸"/>
<glyph d="M589 896h-267v679h-18q-5 -3 -58.5 -38t-105.5 -69l-53 -34v235q92 68 232 155h270v-928z" glyph-name="one.sups" horiz-adv-x="761" unicode="¹"/>
<glyph d="M553 710q121 0 165 126q21 61 21 144q0 186 -98 246q-39 23 -88 23q-115 0 -161 -117q-25 -64 -25 -152q0 -195 105 -251q36 -19 81 -19zM553 497q-244 0 -366 162q-92 125 -92 321q0 246 146 376q121 106 312 106q237 0 359 -156q99 -126 99 -326q0 -265 -160 -391 q-117 -92 -298 -92z" glyph-name="ordmasculine" horiz-adv-x="1107" unicode="º"/>
<glyph d="M505 572l-347 409h271l349 -411v-8l-344 -411h-276l347 410v11zM1016 572l-347 409h271l349 -411v-8l-344 -411h-276l347 410v11z" glyph-name="guillemotright" horiz-adv-x="1447" unicode="»"/>
<glyph d="M1677 928h367v-588h110v-196h-119v-144h-236v134h-481v214q78 161 271 449q40 60 88 131zM1546 337v-3h254v393h-14q-186 -287 -234 -378q-3 -7 -6 -12zM589 515h-267v679h-18q-5 -3 -58.5 -38t-105.5 -69l-53 -34v235q92 68 232 155h270v-928zM569 0l394 749l305 694 h274l-399 -742l-300 -701h-274z" glyph-name="onequarter" horiz-adv-x="2242" unicode="¼"/>
<glyph d="M1410 634q0 157 119 246q101 74 254 74q193 0 291 -104q67 -74 67 -179q0 -117 -99 -222q-53 -56 -140 -121l-114 -97v-18h368v-213h-727v189l277 239q129 108 158 156q18 30 18 62q0 60 -55 86q-25 12 -56 12q-73 0 -103 -55q-13 -25 -13 -54v-6h-245v5zM589 515h-267 v679h-18q-5 -3 -58.5 -38t-105.5 -69l-53 -34v235q92 68 232 155h270v-928zM569 0l394 749l305 694h274l-399 -742l-300 -701h-274z" glyph-name="onehalf" horiz-adv-x="2243" unicode="½"/>
<glyph d="M354 897v177h113q81 0 107 54q9 19 9 40q0 56 -58 80q-27 11 -60 11q-87 0 -117 -61q-9 -20 -11 -43h-243q1 157 124 242q100 69 252 69q189 0 289 -93q72 -68 72 -164q0 -102 -76 -162q-44 -34 -100 -43v-19q126 -11 181 -101q29 -49 29 -112q0 -133 -118 -212 q-109 -72 -277 -72q-200 0 -305 112q-79 84 -80 208h246q3 -69 71 -95q30 -11 66 -11q85 0 118 52q13 22 13 47q0 72 -79 91q-23 5 -51 5h-115zM1837 928h367v-588h110v-196h-119v-144h-236v134h-481v214q78 161 271 449q40 60 88 131zM1706 337v-3h254v393h-14 q-186 -287 -234 -378q-3 -7 -6 -12zM729 0l394 749l305 694h274l-399 -742l-300 -701h-274z" glyph-name="threequarters" horiz-adv-x="2402" unicode="¾"/>
<glyph d="M1064 87q-4 -204 -146 -319q-130 -103 -339 -103q-228 0 -360 121q-116 107 -116 270q0 192 175 312q19 13 39 25q114 67 146 121q24 41 24 101v53h264l2 -54q12 -152 -65 -241q-41 -47 -115 -91q-113 -68 -145 -122q-23 -40 -23 -95q0 -87 76 -132q49 -28 115 -28 q113 0 166 82q27 43 30 100h272zM609 811q-117 0 -162 82q-20 39 -20 88q0 106 85 149q42 21 97 21q117 0 162 -83q20 -38 20 -87q0 -110 -88 -151q-41 -19 -94 -19z" glyph-name="questiondown" horiz-adv-x="1141" unicode="¿"/>
<glyph d="M1102 0l-109 344h-507l-111 -344h-303l501 1443h355l501 -1443h-327zM732 1143l-181 -566h378l-179 566h-18zM624 1908l276 -318h-277l-314 318h315z" glyph-name="Agrave" horiz-adv-x="1500" unicode="À"/>
<glyph d="M1102 0l-109 344h-507l-111 -344h-303l501 1443h355l501 -1443h-327zM732 1143l-181 -566h378l-179 566h-18zM609 1590l277 318h315l-314 -318h-278z" glyph-name="Aacute" horiz-adv-x="1500" unicode="Á"/>
<glyph d="M1102 0l-109 344h-507l-111 -344h-303l501 1443h355l501 -1443h-327zM732 1143l-181 -566h378l-179 566h-18zM886 1925l284 -335h-265l-146 187h-18l-146 -187h-265l284 335h272z" glyph-name="Acircumflex" horiz-adv-x="1500" unicode="Â"/>
<glyph d="M1102 0l-109 344h-507l-111 -344h-303l501 1443h355l501 -1443h-327zM732 1143l-181 -566h378l-179 566h-18zM909 1577q-87 0 -164 62q-9 7 -25 21q-53 45 -83 52q-12 3 -23 3q-81 0 -86 -126v-2h-184q0 181 103 262q61 47 144 47q93 0 175 -66q8 -7 24 -20 q51 -44 79 -50q9 -2 17 -2q80 0 87 122v2h183q0 -173 -100 -255q-62 -50 -147 -50z" glyph-name="Atilde" horiz-adv-x="1500" unicode="Ã"/>
<glyph d="M1102 0l-109 344h-507l-111 -344h-303l501 1443h355l501 -1443h-327zM732 1143l-181 -566h378l-179 566h-18zM516 1579q-85 0 -129 64q-26 39 -26 88q0 83 65 126q40 25 90 25q85 0 129 -63q26 -39 26 -88q0 -82 -64 -126q-40 -26 -91 -26zM984 1579q-84 0 -128 63 q-27 39 -27 89q0 82 64 125q40 26 91 26q86 0 130 -64q26 -38 26 -87q0 -83 -65 -126q-40 -26 -91 -26z" glyph-name="Adieresis" horiz-adv-x="1500" unicode="Ä"/>
<glyph d="M1102 0l-109 344h-507l-111 -344h-303l501 1443h355l501 -1443h-327zM732 1143l-181 -566h378l-179 566h-18zM750 1578q-116 0 -188 81q-58 67 -58 160q0 113 84 182q68 56 162 56q117 0 188 -81q57 -66 57 -157q0 -115 -84 -185q-68 -56 -161 -56zM750 1714q63 0 91 50 q14 25 14 54q0 60 -50 89q-25 14 -55 14q-62 0 -92 -49q-14 -25 -14 -54q0 -63 52 -91q25 -13 54 -13z" glyph-name="Aring" horiz-adv-x="1500" unicode="Å"/>
<glyph d="M990 1202h-129l-249 -604h378v604zM990 0v364h-465l-154 -364h-299l595 1443h1250v-258h-651v-341h614v-239h-614v-347h651v-258h-927z" glyph-name="AE" horiz-adv-x="2059" unicode="Æ"/>
<glyph d="M1121 490h294q-18 -222 -176 -367q-147 -133 -366 -156l-33 -79q152 -7 187 -115q9 -29 9 -62q0 -127 -118 -178q-62 -26 -149 -26q-84 0 -147 17v135q37 -14 116 -14q111 1 112 59q0 46 -83 54q-21 2 -47 2h-60v115l39 93q-285 30 -442 241q-146 199 -146 513 q0 354 183 557q178 198 484 201h10q241 0 413 -137q163 -128 203 -331q7 -36 10 -73h-294q-25 145 -141 221q-84 54 -191 54q-183 0 -283 -151q-85 -131 -85 -341q0 -263 128 -395q96 -98 241 -98q160 0 255 103q60 66 77 158z" glyph-name="Ccedilla" horiz-adv-x="1518" unicode="Ç"/>
<glyph d="M527 1908l276 -318h-277l-314 318h315zM1131 258v-258h-956v1443h956v-258h-654v-337h617v-239h-617v-351h654z" glyph-name="Egrave" horiz-adv-x="1274" unicode="È"/>
<glyph d="M512 1590l277 318h315l-314 -318h-278zM1131 258v-258h-956v1443h956v-258h-654v-337h617v-239h-617v-351h654z" glyph-name="Eacute" horiz-adv-x="1274" unicode="É"/>
<glyph d="M789 1925l284 -335h-265l-146 187h-18l-146 -187h-265l284 335h272zM1131 258v-258h-956v1443h956v-258h-654v-337h617v-239h-617v-351h654z" glyph-name="Ecircumflex" horiz-adv-x="1274" unicode="Ê"/>
<glyph d="M419 1579q-85 0 -129 64q-26 39 -26 88q0 83 65 126q40 25 90 25q85 0 129 -63q26 -39 26 -88q0 -82 -64 -126q-40 -26 -91 -26zM887 1579q-84 0 -128 63q-27 39 -27 89q0 82 64 125q40 26 91 26q86 0 130 -64q26 -38 26 -87q0 -83 -65 -126q-40 -26 -91 -26zM1131 258 v-258h-956v1443h956v-258h-654v-337h617v-239h-617v-351h654z" glyph-name="Edieresis" horiz-adv-x="1274" unicode="Ë"/>
<glyph d="M477 0h-302v1443h302v-1443zM200 1908l276 -318h-277l-314 318h315z" glyph-name="Igrave" horiz-adv-x="652" unicode="Ì"/>
<glyph d="M477 0h-302v1443h302v-1443zM185 1590l277 318h315l-314 -318h-278z" glyph-name="Iacute" horiz-adv-x="652" unicode="Í"/>
<glyph d="M477 0h-302v1443h302v-1443zM462 1925l284 -335h-265l-146 187h-18l-146 -187h-265l284 335h272z" glyph-name="Icircumflex" horiz-adv-x="652" unicode="Î"/>
<glyph d="M477 0h-302v1443h302v-1443zM92 1579q-85 0 -129 64q-26 39 -26 88q0 83 65 126q40 25 90 25q85 0 129 -63q26 -39 26 -88q0 -82 -64 -126q-40 -26 -91 -26zM560 1579q-84 0 -128 63q-27 39 -27 89q0 82 64 125q40 26 91 26q86 0 130 -64q26 -38 26 -87q0 -83 -65 -126 q-40 -26 -91 -26z" glyph-name="Idieresis" horiz-adv-x="652" unicode="Ï"/>
<glyph d="M477 258h218q263 0 363 200q54 110 54 269q0 264 -158 382q-103 77 -259 77h-218v-341h210v-227h-210v-360zM175 1444h568q349 0 527 -217q150 -185 150 -495q0 -401 -227 -590q-172 -142 -450 -142h-568v618h-142v227h142v599z" glyph-name="Eth" horiz-adv-x="1499" unicode="Ð"/>
<glyph d="M942 1577q-87 0 -164 62q-9 7 -25 21q-53 45 -83 52q-12 3 -23 3q-81 0 -86 -126v-2h-184q0 181 103 262q61 47 144 47q93 0 175 -66q8 -7 24 -20q51 -44 79 -50q9 -2 17 -2q80 0 87 122v2h183q0 -173 -100 -255q-62 -50 -147 -50zM464 0h-289v1443h252l664 -899h18v899 h289v-1443h-250l-666 903h-18v-903z" glyph-name="Ntilde" horiz-adv-x="1573" unicode="Ñ"/>
<glyph d="M680 1908l276 -318h-277l-314 318h315zM806 1480q308 0 494 -191q187 -192 198 -528q1 -20 1 -39q0 -348 -183 -551q-178 -198 -481 -208h-29q-311 0 -497 192q-188 195 -198 534v33q0 343 182 547q174 196 469 210q22 1 44 1zM806 1215q-183 0 -288 -143 q-98 -134 -98 -350q0 -251 126 -386q103 -108 260 -108q184 0 289 145q96 133 96 349q0 252 -127 386q-102 107 -258 107z" glyph-name="Ograve" horiz-adv-x="1610" unicode="Ò"/>
<glyph d="M665 1590l277 318h315l-314 -318h-278zM806 1480q308 0 494 -191q187 -192 198 -528q1 -20 1 -39q0 -348 -183 -551q-178 -198 -481 -208h-29q-311 0 -497 192q-188 195 -198 534v33q0 343 182 547q174 196 469 210q22 1 44 1zM806 1215q-183 0 -288 -143 q-98 -134 -98 -350q0 -251 126 -386q103 -108 260 -108q184 0 289 145q96 133 96 349q0 252 -127 386q-102 107 -258 107z" glyph-name="Oacute" horiz-adv-x="1610" unicode="Ó"/>
<glyph d="M942 1925l284 -335h-265l-146 187h-18l-146 -187h-265l284 335h272zM806 1480q308 0 494 -191q187 -192 198 -528q1 -20 1 -39q0 -348 -183 -551q-178 -198 -481 -208h-29q-311 0 -497 192q-188 195 -198 534v33q0 343 182 547q174 196 469 210q22 1 44 1zM806 1215 q-183 0 -288 -143q-98 -134 -98 -350q0 -251 126 -386q103 -108 260 -108q184 0 289 145q96 133 96 349q0 252 -127 386q-102 107 -258 107z" glyph-name="Ocircumflex" horiz-adv-x="1610" unicode="Ô"/>
<glyph d="M806 1480q308 0 494 -191q187 -192 198 -528q1 -20 1 -39q0 -348 -183 -551q-178 -198 -481 -208h-29q-311 0 -497 192q-188 195 -198 534v33q0 343 182 547q174 196 469 210q22 1 44 1zM806 1215q-183 0 -288 -143q-98 -134 -98 -350q0 -251 126 -386q103 -108 260 -108 q184 0 289 145q96 133 96 349q0 252 -127 386q-102 107 -258 107zM965 1577q-87 0 -164 62q-9 7 -25 21q-53 45 -83 52q-12 3 -23 3q-81 0 -86 -126v-2h-184q0 181 103 262q61 47 144 47q93 0 175 -66q8 -7 24 -20q51 -44 79 -50q9 -2 17 -2q80 0 87 122v2h183 q0 -173 -100 -255q-62 -50 -147 -50z" glyph-name="Otilde" horiz-adv-x="1610" unicode="Õ"/>
<glyph d="M572 1579q-85 0 -129 64q-26 39 -26 88q0 83 65 126q40 25 90 25q85 0 129 -63q26 -39 26 -88q0 -82 -64 -126q-40 -26 -91 -26zM1040 1579q-84 0 -128 63q-27 39 -27 89q0 82 64 125q40 26 91 26q86 0 130 -64q26 -38 26 -87q0 -83 -65 -126q-40 -26 -91 -26zM806 1480 q308 0 494 -191q187 -192 198 -528q1 -20 1 -39q0 -348 -183 -551q-178 -198 -481 -208h-29q-311 0 -497 192q-188 195 -198 534v33q0 343 182 547q174 196 469 210q22 1 44 1zM806 1215q-183 0 -288 -143q-98 -134 -98 -350q0 -251 126 -386q103 -108 260 -108 q184 0 289 145q96 133 96 349q0 252 -127 386q-102 107 -258 107z" glyph-name="Odieresis" horiz-adv-x="1610" unicode="Ö"/>
<glyph d="M708 402l-305 -304l-175 182l304 304l-304 305l175 182l305 -304l304 304l175 -182l-304 -305l304 -304l-175 -182z" glyph-name="multiply" unicode="×"/>
<glyph d="M1097 1067l-510 -768q93 -71 219 -71q184 0 289 145q96 133 96 349q-1 216 -94 345zM503 392l506 763q-88 60 -203 60q-183 0 -288 -143q-98 -134 -98 -350q0 -201 83 -330zM1350 1448l-84 -127q195 -170 227 -482q6 -57 6 -117q0 -348 -183 -551q-178 -198 -481 -208 h-29q-217 1 -377 97l-85 -128l-102 66l90 135q-200 186 -219 521q-2 34 -2 68q0 343 182 547q174 196 469 210q22 1 44 1q207 0 360 -88l76 115z" glyph-name="Oslash" horiz-adv-x="1592" unicode="Ø"/>
<glyph d="M656 1908l276 -318h-277l-314 318h315zM480 1443v-914q0 -172 118 -249q75 -49 184 -49q182 0 259 125q44 72 44 173v914h302v-945q0 -235 -156 -380q-163 -152 -439 -155h-10q-277 0 -442 149q-158 143 -162 375v11v945h302z" glyph-name="Ugrave" horiz-adv-x="1565" unicode="Ù"/>
<glyph d="M641 1590l277 318h315l-314 -318h-278zM480 1443v-914q0 -172 118 -249q75 -49 184 -49q182 0 259 125q44 72 44 173v914h302v-945q0 -235 -156 -380q-163 -152 -439 -155h-10q-277 0 -442 149q-158 143 -162 375v11v945h302z" glyph-name="Uacute" horiz-adv-x="1565" unicode="Ú"/>
<glyph d="M918 1925l284 -335h-265l-146 187h-18l-146 -187h-265l284 335h272zM480 1443v-914q0 -172 118 -249q75 -49 184 -49q182 0 259 125q44 72 44 173v914h302v-945q0 -235 -156 -380q-163 -152 -439 -155h-10q-277 0 -442 149q-158 143 -162 375v11v945h302z" glyph-name="Ucircumflex" horiz-adv-x="1565" unicode="Û"/>
<glyph d="M548 1579q-85 0 -129 64q-26 39 -26 88q0 83 65 126q40 25 90 25q85 0 129 -63q26 -39 26 -88q0 -82 -64 -126q-40 -26 -91 -26zM1016 1579q-84 0 -128 63q-27 39 -27 89q0 82 64 125q40 26 91 26q86 0 130 -64q26 -38 26 -87q0 -83 -65 -126q-40 -26 -91 -26zM480 1443 v-914q0 -172 118 -249q75 -49 184 -49q182 0 259 125q44 72 44 173v914h302v-945q0 -235 -156 -380q-163 -152 -439 -155h-10q-277 0 -442 149q-158 143 -162 375v11v945h302z" glyph-name="Udieresis" horiz-adv-x="1565" unicode="Ü"/>
<glyph d="M877 0h-302v531l-503 912h327l318 -604h18l317 604h327l-502 -912v-531zM585 1590l277 318h315l-314 -318h-278z" glyph-name="Yacute" horiz-adv-x="1452" unicode="Ý"/>
<glyph d="M175 1443h304v-232h307q210 0 341 -124q134 -128 134 -338q0 -212 -142 -340q-136 -121 -348 -121h-294v-288h-302v1443zM477 963v-430h226q169 0 227 108q24 46 24 108q0 145 -126 194q-54 20 -124 20h-227z" glyph-name="Thorn" horiz-adv-x="1378" unicode="Þ"/>
<glyph d="M482 0h-290v1079q0 197 151 306q134 96 349 96q229 0 368 -114q125 -104 126 -263q0 -149 -92 -245q-54 -56 -126 -77v-19q171 -11 262 -130q73 -95 73 -232q0 -192 -137 -306q-133 -110 -348 -110q-114 0 -181 16v241q55 -18 129 -18q157 0 215 96q26 43 26 99 q0 116 -112 166q-67 30 -162 30h-72v245h49q117 0 167 85q26 46 26 107q0 105 -83 155q-52 30 -123 30q-161 0 -202 -130q-13 -40 -13 -90v-1017z" glyph-name="germandbls" horiz-adv-x="1402" unicode="ß"/>
<glyph d="M544 202q116 0 186 73q51 54 51 125v81l-223 -14q-185 -15 -186 -133q0 -79 78 -114q41 -18 94 -18zM448 -17q-175 0 -276 106q-85 90 -85 226q0 204 202 286q94 38 225 46l267 16v90q0 107 -110 135q-34 9 -76 9q-154 0 -195 -93q-3 -5 -4 -9h-268q15 165 165 255 q127 77 318 77q276 0 390 -153q67 -90 67 -221v-753h-282v144h-18q-62 -110 -203 -147q-56 -14 -117 -14zM770 1281h-269l-287 353h309z" glyph-name="agrave" horiz-adv-x="1208" unicode="à"/>
<glyph d="M544 202q116 0 186 73q51 54 51 125v81l-223 -14q-185 -15 -186 -133q0 -79 78 -114q41 -18 94 -18zM448 -17q-175 0 -276 106q-85 90 -85 226q0 204 202 286q94 38 225 46l267 16v90q0 107 -110 135q-34 9 -76 9q-154 0 -195 -93q-3 -5 -4 -9h-268q15 165 165 255 q127 77 318 77q276 0 390 -153q67 -90 67 -221v-753h-282v144h-18q-62 -110 -203 -147q-56 -14 -117 -14zM456 1281l247 353h309l-287 -353h-269z" glyph-name="aacute" horiz-adv-x="1208" unicode="á"/>
<glyph d="M544 202q116 0 186 73q51 54 51 125v81l-223 -14q-185 -15 -186 -133q0 -79 78 -114q41 -18 94 -18zM448 -17q-175 0 -276 106q-85 90 -85 226q0 204 202 286q94 38 225 46l267 16v90q0 107 -110 135q-34 9 -76 9q-154 0 -195 -93q-3 -5 -4 -9h-268q15 165 165 255 q127 77 318 77q276 0 390 -153q67 -90 67 -221v-753h-282v144h-18q-62 -110 -203 -147q-56 -14 -117 -14zM756 1605l275 -354h-263l-148 209h-18l-149 -209h-263l275 354h291z" glyph-name="acircumflex" horiz-adv-x="1208" unicode="â"/>
<glyph d="M544 202q116 0 186 73q51 54 51 125v81l-223 -14q-185 -15 -186 -133q0 -79 78 -114q41 -18 94 -18zM448 -17q-175 0 -276 106q-85 90 -85 226q0 204 202 286q94 38 225 46l267 16v90q0 107 -110 135q-34 9 -76 9q-154 0 -195 -93q-3 -5 -4 -9h-268q15 165 165 255 q127 77 318 77q276 0 390 -153q67 -90 67 -221v-753h-282v144h-18q-62 -110 -203 -147q-56 -14 -117 -14zM484 1397q-86 -2 -88 -141h-187q0 170 96 259q68 62 165 62q83 0 162 -68q8 -7 24 -22q50 -45 75 -52q9 -2 17 -2q86 0 88 136v2h187q0 -171 -97 -258 q-68 -60 -164 -60q-83 0 -162 68q-8 7 -24 22q-50 45 -75 52q-9 2 -17 2z" glyph-name="atilde" horiz-adv-x="1208" unicode="ã"/>
<glyph d="M544 202q116 0 186 73q51 54 51 125v81l-223 -14q-185 -15 -186 -133q0 -79 78 -114q41 -18 94 -18zM448 -17q-175 0 -276 106q-85 90 -85 226q0 204 202 286q94 38 225 46l267 16v90q0 107 -110 135q-34 9 -76 9q-154 0 -195 -93q-3 -5 -4 -9h-268q15 165 165 255 q127 77 318 77q276 0 390 -153q67 -90 67 -221v-753h-282v144h-18q-62 -110 -203 -147q-56 -14 -117 -14zM377 1251q-85 0 -129 64q-26 39 -26 88q0 83 65 126q40 25 90 25q85 0 129 -63q26 -39 26 -88q0 -82 -64 -126q-40 -26 -91 -26zM845 1251q-84 0 -128 63 q-27 39 -27 89q0 82 64 125q40 26 91 26q86 0 130 -64q26 -38 26 -87q0 -83 -65 -126q-40 -26 -91 -26z" glyph-name="adieresis" horiz-adv-x="1208" unicode="ä"/>
<glyph d="M544 202q116 0 186 73q51 54 51 125v81l-223 -14q-185 -15 -186 -133q0 -79 78 -114q41 -18 94 -18zM448 -17q-175 0 -276 106q-85 90 -85 226q0 204 202 286q94 38 225 46l267 16v90q0 107 -110 135q-34 9 -76 9q-154 0 -195 -93q-3 -5 -4 -9h-268q15 165 165 255 q127 77 318 77q276 0 390 -153q67 -90 67 -221v-753h-282v144h-18q-62 -110 -203 -147q-56 -14 -117 -14zM611 1251q-116 0 -188 81q-58 67 -58 160q0 113 84 182q68 56 162 56q117 0 188 -81q57 -66 57 -157q0 -115 -84 -185q-68 -56 -161 -56zM611 1387q63 0 91 50 q14 25 14 54q0 60 -50 89q-25 14 -55 14q-62 0 -92 -49q-14 -25 -14 -54q0 -63 52 -91q25 -13 54 -13z" glyph-name="aring" horiz-adv-x="1208" unicode="å"/>
<glyph d="M1315 -24q-181 0 -305 98q-54 44 -86 100h-18q-98 -142 -278 -184q-62 -14 -129 -14q-206 0 -320 113q-92 91 -92 226q0 204 202 286q94 38 225 46l267 16v90q0 107 -110 135q-34 9 -76 9q-154 0 -195 -93q-3 -5 -4 -9h-268q13 148 141 241q126 91 311 91q242 0 350 -148 q4 -5 7 -10h18q89 111 243 146q56 12 113 12q238 0 370 -160q122 -148 122 -389v-94h-747v-26q5 -141 102 -211q65 -47 154 -47q155 1 212 114h269q-37 -176 -192 -267q-122 -71 -286 -71zM1293 904q-125 0 -191 -94q-41 -59 -46 -141h462q-5 127 -91 192q-58 43 -134 43z M549 199q110 0 179 74q53 57 53 131v77l-223 -14q-185 -15 -186 -135q0 -82 81 -116q42 -17 96 -17z" glyph-name="ae" horiz-adv-x="1894" unicode="æ"/>
<glyph d="M1122 714h-272q-23 121 -128 159q-42 15 -91 15q-167 0 -221 -165q-24 -72 -24 -169q0 -242 133 -313q49 -26 112 -26q155 0 205 121q9 22 14 46h272q-20 -209 -175 -317q-94 -66 -225 -83l-39 -94q152 -7 187 -115q9 -29 9 -62q0 -127 -118 -178q-62 -26 -149 -26 q-84 0 -147 17v135q37 -14 116 -14q111 1 112 59q0 46 -83 54q-21 2 -47 2h-60v115l44 105q-276 30 -388 252q-67 133 -67 322q0 329 198 475q134 98 341 98q258 0 391 -158q85 -103 100 -255z" glyph-name="ccedilla" horiz-adv-x="1203" unicode="ç"/>
<glyph d="M781 1281h-269l-287 353h309zM623 904q-124 0 -191 -93q-43 -60 -49 -144h470q-6 141 -103 203q-54 34 -127 34zM859 314h271q-37 -175 -198 -266q-129 -72 -306 -72q-277 0 -419 181q-115 148 -115 389q0 286 159 443q141 138 371 138q270 0 406 -178q111 -145 111 -379 v-89h-757v-15q4 -156 107 -226q61 -40 145 -40q161 0 217 97q4 9 8 17z" glyph-name="egrave" horiz-adv-x="1231" unicode="è"/>
<glyph d="M467 1281l247 353h309l-287 -353h-269zM623 904q-124 0 -191 -93q-43 -60 -49 -144h470q-6 141 -103 203q-54 34 -127 34zM859 314h271q-37 -175 -198 -266q-129 -72 -306 -72q-277 0 -419 181q-115 148 -115 389q0 286 159 443q141 138 371 138q270 0 406 -178 q111 -145 111 -379v-89h-757v-15q4 -156 107 -226q61 -40 145 -40q161 0 217 97q4 9 8 17z" glyph-name="eacute" horiz-adv-x="1231" unicode="é"/>
<glyph d="M767 1605l275 -354h-263l-148 209h-18l-149 -209h-263l275 354h291zM623 904q-124 0 -191 -93q-43 -60 -49 -144h470q-6 141 -103 203q-54 34 -127 34zM859 314h271q-37 -175 -198 -266q-129 -72 -306 -72q-277 0 -419 181q-115 148 -115 389q0 286 159 443 q141 138 371 138q270 0 406 -178q111 -145 111 -379v-89h-757v-15q4 -156 107 -226q61 -40 145 -40q161 0 217 97q4 9 8 17z" glyph-name="ecircumflex" horiz-adv-x="1231" unicode="ê"/>
<glyph d="M623 904q-124 0 -191 -93q-43 -60 -49 -144h470q-6 141 -103 203q-54 34 -127 34zM859 314h271q-37 -175 -198 -266q-129 -72 -306 -72q-277 0 -419 181q-115 148 -115 389q0 286 159 443q141 138 371 138q270 0 406 -178q111 -145 111 -379v-89h-757v-15 q4 -156 107 -226q61 -40 145 -40q161 0 217 97q4 9 8 17zM388 1251q-85 0 -129 64q-26 39 -26 88q0 83 65 126q40 25 90 25q85 0 129 -63q26 -39 26 -88q0 -82 -64 -126q-40 -26 -91 -26zM856 1251q-84 0 -128 63q-27 39 -27 89q0 82 64 125q40 26 91 26q86 0 130 -64 q26 -38 26 -87q0 -83 -65 -126q-40 -26 -91 -26z" glyph-name="edieresis" horiz-adv-x="1231" unicode="ë"/>
<glyph d="M456 1281h-269l-287 353h309zM151 0v1103h291v-1103h-291z" glyph-name="igrave" horiz-adv-x="593" unicode="ì"/>
<glyph d="M142 1281l247 353h309l-287 -353h-269zM151 0v1103h291v-1103h-291z" glyph-name="iacute" horiz-adv-x="593" unicode="í"/>
<glyph d="M442 1605l275 -354h-263l-148 209h-18l-149 -209h-263l275 354h291zM151 0v1103h291v-1103h-291z" glyph-name="icircumflex" horiz-adv-x="593" unicode="î"/>
<glyph d="M151 0v1103h291v-1103h-291zM63 1251q-85 0 -129 64q-26 39 -26 88q0 83 65 126q40 25 90 25q85 0 129 -63q26 -39 26 -88q0 -82 -64 -126q-40 -26 -91 -26zM531 1251q-84 0 -128 63q-27 39 -27 89q0 82 64 125q40 26 91 26q86 0 130 -64q26 -38 26 -87q0 -83 -65 -126 q-40 -26 -91 -26z" glyph-name="idieresis" horiz-adv-x="593" unicode="ï"/>
<glyph d="M638 -17q-244 0 -392 150q-148 153 -149 403q0 232 128 375q132 139 330 142q138 0 232 -73q31 -24 51 -52h17q-37 124 -148 254q-12 15 -23 27l-285 -95l-55 143l228 76q-79 70 -242 183h363q61 -45 119 -100l265 89l57 -143l-205 -68q224 -265 250 -609q3 -41 3 -81 q0 -286 -151 -456q-150 -164 -393 -165zM645 843q-135 0 -202 -113q-47 -80 -47 -196q0 -177 100 -258q62 -50 149 -50q138 0 205 115q45 79 45 193q0 172 -97 255q-64 54 -153 54z" glyph-name="eth" horiz-adv-x="1277" unicode="ð"/>
<glyph d="M540 1397q-86 -2 -88 -141h-187q0 170 96 259q68 62 165 62q83 0 162 -68q8 -7 24 -22q50 -45 75 -52q9 -2 17 -2q86 0 88 136v2h187q0 -171 -97 -258q-68 -60 -164 -60q-83 0 -162 68q-8 7 -24 22q-50 45 -75 52q-9 2 -17 2zM146 0v1103h282v-177h18q49 119 179 171 q75 30 164 30q233 0 329 -169q56 -99 56 -245v-713h-291v644q0 204 -165 229q-22 3 -45 3q-132 0 -195 -94q-41 -61 -41 -146v-636h-291z" glyph-name="ntilde" horiz-adv-x="1310" unicode="ñ"/>
<glyph d="M794 1281h-269l-287 353h309zM635 214q149 0 210 142q34 80 34 196q0 215 -113 297q-55 40 -131 40q-147 0 -208 -139q-36 -81 -36 -198q0 -229 123 -306q52 -32 121 -32zM635 -24q-275 0 -419 176q-124 152 -124 400q0 284 163 439q144 136 380 136q266 0 411 -169 q132 -153 132 -406q0 -297 -172 -450q-142 -126 -371 -126z" glyph-name="ograve" horiz-adv-x="1269" unicode="ò"/>
<glyph d="M480 1281l247 353h309l-287 -353h-269zM635 214q149 0 210 142q34 80 34 196q0 215 -113 297q-55 40 -131 40q-147 0 -208 -139q-36 -81 -36 -198q0 -229 123 -306q52 -32 121 -32zM635 -24q-275 0 -419 176q-124 152 -124 400q0 284 163 439q144 136 380 136 q266 0 411 -169q132 -153 132 -406q0 -297 -172 -450q-142 -126 -371 -126z" glyph-name="oacute" horiz-adv-x="1269" unicode="ó"/>
<glyph d="M780 1605l275 -354h-263l-148 209h-18l-149 -209h-263l275 354h291zM635 214q149 0 210 142q34 80 34 196q0 215 -113 297q-55 40 -131 40q-147 0 -208 -139q-36 -81 -36 -198q0 -229 123 -306q52 -32 121 -32zM635 -24q-275 0 -419 176q-124 152 -124 400q0 284 163 439 q144 136 380 136q266 0 411 -169q132 -153 132 -406q0 -297 -172 -450q-142 -126 -371 -126z" glyph-name="ocircumflex" horiz-adv-x="1269" unicode="ô"/>
<glyph d="M508 1397q-86 -2 -88 -141h-187q0 170 96 259q68 62 165 62q83 0 162 -68q8 -7 24 -22q50 -45 75 -52q9 -2 17 -2q86 0 88 136v2h187q0 -171 -97 -258q-68 -60 -164 -60q-83 0 -162 68q-8 7 -24 22q-50 45 -75 52q-9 2 -17 2zM635 214q149 0 210 142q34 80 34 196 q0 215 -113 297q-55 40 -131 40q-147 0 -208 -139q-36 -81 -36 -198q0 -229 123 -306q52 -32 121 -32zM635 -24q-275 0 -419 176q-124 152 -124 400q0 284 163 439q144 136 380 136q266 0 411 -169q132 -153 132 -406q0 -297 -172 -450q-142 -126 -371 -126z" glyph-name="otilde" horiz-adv-x="1269" unicode="õ"/>
<glyph d="M401 1251q-85 0 -129 64q-26 39 -26 88q0 83 65 126q40 25 90 25q85 0 129 -63q26 -39 26 -88q0 -82 -64 -126q-40 -26 -91 -26zM869 1251q-84 0 -128 63q-27 39 -27 89q0 82 64 125q40 26 91 26q86 0 130 -64q26 -38 26 -87q0 -83 -65 -126q-40 -26 -91 -26zM635 214 q149 0 210 142q34 80 34 196q0 215 -113 297q-55 40 -131 40q-147 0 -208 -139q-36 -81 -36 -198q0 -229 123 -306q52 -32 121 -32zM635 -24q-275 0 -419 176q-124 152 -124 400q0 284 163 439q144 136 380 136q266 0 411 -169q132 -153 132 -406q0 -297 -172 -450 q-142 -126 -371 -126z" glyph-name="odieresis" horiz-adv-x="1269" unicode="ö"/>
<glyph d="M1248 472h-1080v225h1080v-225zM708 815q-95 0 -141 69q-26 41 -26 93q0 92 71 136q42 25 96 25q96 0 142 -70q25 -40 25 -91q0 -91 -70 -136q-42 -26 -97 -26zM708 30q-95 0 -141 69q-26 41 -26 93q0 91 70 136q42 26 97 26q95 0 141 -69q26 -41 26 -93q0 -91 -70 -136 q-42 -26 -97 -26z" glyph-name="divide" unicode="÷"/>
<glyph d="M841 755l-320 -513q49 -28 114 -28q149 0 210 142q34 80 34 196q0 121 -38 203zM436 333l324 520q-53 36 -125 36q-147 0 -208 -139q-36 -81 -36 -198q0 -137 45 -219zM1065 1114l-67 -107q169 -145 179 -420q1 -18 1 -35q0 -297 -172 -450q-142 -126 -371 -126 q-139 0 -249 48l-61 -97l-103 63l60 96q-174 140 -189 419q-1 23 -1 47q0 284 163 439q144 136 380 136q148 0 262 -55l62 100z" glyph-name="oslash" horiz-adv-x="1269" unicode="ø"/>
<glyph d="M815 1281h-269l-287 353h309zM1169 1103v-1103h-282v177h-18q-55 -135 -200 -181q-63 -20 -135 -20q-207 0 -314 136q-84 108 -84 277v714h291v-644q0 -187 146 -222q32 -8 69 -8q134 0 197 95q39 59 39 143v636h291z" glyph-name="ugrave" horiz-adv-x="1318" unicode="ù"/>
<glyph d="M501 1281l247 353h309l-287 -353h-269zM1169 1103v-1103h-282v177h-18q-55 -135 -200 -181q-63 -20 -135 -20q-207 0 -314 136q-84 108 -84 277v714h291v-644q0 -187 146 -222q32 -8 69 -8q134 0 197 95q39 59 39 143v636h291z" glyph-name="uacute" horiz-adv-x="1318" unicode="ú"/>
<glyph d="M801 1605l275 -354h-263l-148 209h-18l-149 -209h-263l275 354h291zM1169 1103v-1103h-282v177h-18q-55 -135 -200 -181q-63 -20 -135 -20q-207 0 -314 136q-84 108 -84 277v714h291v-644q0 -187 146 -222q32 -8 69 -8q134 0 197 95q39 59 39 143v636h291z" glyph-name="ucircumflex" horiz-adv-x="1318" unicode="û"/>
<glyph d="M1169 1103v-1103h-282v177h-18q-55 -135 -200 -181q-63 -20 -135 -20q-207 0 -314 136q-84 108 -84 277v714h291v-644q0 -187 146 -222q32 -8 69 -8q134 0 197 95q39 59 39 143v636h291zM422 1251q-85 0 -129 64q-26 39 -26 88q0 83 65 126q40 25 90 25q85 0 129 -63 q26 -39 26 -88q0 -82 -64 -126q-40 -26 -91 -26zM890 1251q-84 0 -128 63q-27 39 -27 89q0 82 64 125q40 26 91 26q86 0 130 -64q26 -38 26 -87q0 -83 -65 -126q-40 -26 -91 -26z" glyph-name="udieresis" horiz-adv-x="1318" unicode="ü"/>
<glyph d="M283 -403q-91 0 -111 3v235q15 -3 66 -3q146 0 187 98q5 11 8 23l10 40l-387 1110h321l232 -836h18l232 836h308l-380 -1120q-73 -220 -193 -306q-112 -80 -311 -80zM461 1281l247 353h309l-287 -353h-269z" glyph-name="yacute" horiz-adv-x="1223" unicode="ý"/>
<glyph d="M790 1121q226 0 346 -174q102 -149 102 -395q0 -302 -150 -453q-116 -116 -295 -116q-182 0 -283 110q-31 35 -50 76h-18v-514h-291v1852h287v-585h18q63 130 201 178q63 21 133 21zM689 226q146 0 211 130q39 80 39 196q0 195 -106 278q-60 47 -143 47q-139 0 -206 -121 q-45 -83 -45 -205q0 -192 104 -276q61 -49 146 -49z" glyph-name="thorn" horiz-adv-x="1339" unicode="þ"/>
</font>
</defs>
</svg>
